<?xml version="1.0" encoding="UTF-8"?>
<svg xmlns="http://www.w3.org/2000/svg" xmlns:xlink="http://www.w3.org/1999/xlink" fill="none" height="29" viewBox="0 0 156 29" width="156">
<linearGradient id="a"><stop offset=".015625" stop-color="#3294ff"></stop><stop offset="1" stop-color="#005bbe"></stop></linearGradient>
<linearGradient id="b" gradientUnits="userSpaceOnUse" x1="22.9535" x2="3.8749" xlink:href="#a" y1="23.2648" y2="4.17509"></linearGradient>
<linearGradient id="c" gradientUnits="userSpaceOnUse" x1="11.5653" x2="32.3402" xlink:href="#a" y1="5.52795" y2="22.9703"></linearGradient>
<clipPath id="d"><path d="m0 0h35.4067v28.0449h-35.4067z"></path></clipPath>
<g fill="currentColor"><path d="m103.384 22.2034v-11.7231h2.744v11.7231z"></path><path d="m104.767 8.54837c-.512 0-.937-.16099-1.273-.48297-.322-.32198-.483-.70982-.483-1.16353 0-.46834.161-.85618.483-1.16353.336-.32198.761-.48297 1.273-.48297s.93.15367 1.252.46102c.336.29271.505.66592.505 1.11962 0 .48298-.161.89277-.483 1.22939-.323.32198-.747.48297-1.274.48297z"></path><path d="m125.443 22.357c-1.288 0-2.283-.3293-2.986-.9879-.703-.6732-1.054-1.6611-1.054-2.9637v-5.642h-1.932v-2.1953h1.932v-2.67833h2.745v2.67833h3.139v2.1953h-3.139v5.5762c0 .5561.139.9879.417 1.2952.293.3074.695.461 1.207.461.615 0 1.127-.161 1.537-.4829l.769 1.9538c-.322.2635-.718.461-1.186.5928-.468.1317-.951.1975-1.449.1975z"></path><path clip-rule="evenodd" d="m132.013 21.5887c.937.5122 2.006.7683 3.206.7683 1.215 0 2.291-.2561 3.227-.7683.952-.5269 1.691-1.2441 2.218-2.1515.541-.9074.812-1.9392.812-3.0954 0-1.1855-.271-2.2246-.812-3.1174-.527-.8927-1.266-1.5952-2.218-2.1075-.936-.5122-2.012-.7683-3.227-.7683-1.2 0-2.269.2561-3.206.7683-.937.5123-1.676 1.2221-2.217 2.1295-.542.8928-.813 1.9246-.813 3.0954 0 1.1562.271 2.188.813 3.0954.541.9074 1.28 1.6246 2.217 2.1515zm5.006-2.0197c-.527.2927-1.127.439-1.8.439-.659 0-1.252-.1463-1.779-.439-.512-.2928-.922-.7172-1.229-1.2733-.308-.5562-.461-1.2075-.461-1.9539 0-.761.153-1.4123.461-1.9538.307-.5562.717-.9806 1.229-1.2733.527-.2927 1.127-.4391 1.801-.4391.658 0 1.251.1464 1.778.4391s.937.7171 1.23 1.2733c.307.5415.461 1.1928.461 1.9538 0 .7464-.154 1.3977-.461 1.9539-.293.5561-.703.9805-1.23 1.2733z" fill-rule="evenodd"></path><path d="m153.256 10.8974c-.732-.3659-1.566-.5488-2.503-.5488-1.024 0-1.932.2048-2.722.6146-.522.2659-.961.6113-1.318 1.0361v-1.519h-2.612v11.7231h2.744v-5.9274c0-.7904.132-1.4416.395-1.9539.278-.5269.666-.922 1.164-1.1855.498-.2634 1.068-.3951 1.712-.3951.879 0 1.559.2561 2.042.7683.498.5123.747 1.288.747 2.3271v6.3665h2.744v-6.7178c0-1.1854-.212-2.1514-.636-2.8978-.425-.7611-1.01-1.3245-1.757-1.6904z"></path><path d="m110.521 21.9838c.907.2488 1.851.3732 2.832.3732 1.098 0 2.042-.1463 2.832-.439.791-.3074 1.398-.7318 1.823-1.2733.439-.5415.658-1.1782.658-1.91 0-.6586-.131-1.1928-.395-1.6026-.263-.4098-.615-.7244-1.054-.944-.424-.2341-.893-.4171-1.405-.5488s-1.032-.2268-1.559-.2854c-.512-.0732-.98-.161-1.405-.2634-.424-.1025-.768-.2415-1.032-.4171-.263-.1757-.395-.4391-.395-.7904 0-.3805.198-.6951.593-.944.41-.2488 1.032-.3732 1.866-.3732.556 0 1.112.0659 1.669.1976.571.1171 1.134.344 1.69.6806l1.054-2.0856c-.527-.322-1.193-.5708-1.998-.7464s-1.603-.2634-2.393-.2634c-1.054 0-1.969.1536-2.744.461-.762.2927-1.354.7171-1.779 1.2733-.424.5415-.637 1.1854-.637 1.9319 0 .6732.132 1.2147.396 1.6245.263.4098.607.7391 1.032.9879.424.2342.892.4171 1.405.5488.527.1171 1.046.2123 1.559.2854.527.0732 1.002.1537 1.427.2415.424.0878.768.2196 1.032.3952.263.161.395.4025.395.7244 0 .3952-.198.7099-.593.944-.381.2342-1.003.3513-1.866.3513-.732 0-1.464-.1098-2.196-.3293s-1.361-.4976-1.888-.8342l-1.054 2.0855c.527.3659 1.237.6806 2.13.944z"></path><path d="m97.5091 10.8974c-.7318-.3659-1.5661-.5488-2.5029-.5488-1.0246 0-1.9321.2048-2.7225.6146-.5219.2659-.9611.6113-1.3174 1.0361v-1.519h-2.6127v11.7231h2.7445v-5.9274c0-.7904.1317-1.4416.3952-1.9539.2781-.5269.666-.922 1.1636-1.1855.4977-.2634 1.0685-.3951 1.7126-.3951.8782 0 1.5588.2561 2.0419.7683.4976.5123.7465 1.288.7465 2.3271v6.3665h2.7444v-6.7178c0-1.1854-.2122-2.1514-.6367-2.8978-.4245-.7611-1.01-1.3245-1.7565-1.6904z"></path><path d="m80.0382 10.3486c.9368 0 1.7638.1829 2.481.5488.7319.3659 1.3027.9293 1.7126 1.6904.4098.7464.6147 1.7124.6147 2.8978v6.7178h-2.7444v-6.3665c0-1.0391-.2269-1.8148-.6807-2.3271-.4537-.5122-1.1051-.7683-1.954-.7683-.6002 0-1.1344.1317-1.6028.3951-.4538.2635-.8124.6513-1.0758 1.1636-.2489.5122-.3733 1.1635-.3733 1.9538v5.9494h-2.7444v-6.3665c0-1.0391-.2269-1.8148-.6807-2.3271-.4537-.5122-1.1051-.7683-1.954-.7683-.6002 0-1.1344.1317-1.6028.3951-.4538.2635-.8124.6513-1.0758 1.1636-.2489.5122-.3733 1.1635-.3733 1.9538v5.9494h-2.7445v-11.7231h2.6128v1.4861c.3402-.4218.7573-.7635 1.2515-1.0251.7611-.3952 1.6247-.5927 2.5907-.5927 1.0978 0 2.0492.2707 2.8543.8122.4512.2981.8182.6805 1.1008 1.1472.3517-.4559.7971-.8456 1.3363-1.1691.8782-.5269 1.8955-.7903 3.0518-.7903z"></path><path clip-rule="evenodd" d="m50.9074 22.1805c1.01.3952 2.1151.5928 3.3153.5928 1.1856 0 2.2761-.1976 3.2714-.5928 1.01-.3951 1.8882-.944 2.6347-1.6465s1.3247-1.5367 1.7345-2.5027c.4099-.9659.6148-2.0197.6148-3.1613 0-1.1415-.2049-2.188-.6148-3.1393-.4098-.9659-.988-1.80016-1.7345-2.50267-.7465-.71714-1.6247-1.27329-2.6347-1.66845-.9953-.39516-2.0931-.59274-3.2933-.59274-1.1856 0-2.2834.19758-3.2934.59274s-1.8882.95131-2.6347 1.66845c-.7465.70251-1.3246 1.53677-1.7345 2.50267-.4098.9513-.6147 1.9978-.6147 3.1393 0 1.1416.2049 2.1954.6147 3.1613.4099.9513.988 1.7856 1.7345 2.5027.7465.7025 1.6247 1.2514 2.6347 1.6465zm5.445-2.3051c-.6586.2634-1.3759.3952-2.1516.3952-.7758 0-1.493-.1318-2.1517-.3952s-1.2295-.6366-1.7125-1.1196c-.4831-.4976-.8636-1.0757-1.1417-1.7343-.2635-.6586-.3952-1.3758-.3952-2.1515 0-.7903.1317-1.5074.3952-2.1514.2781-.6586.6586-1.2294 1.1417-1.7123.4976-.4977 1.0685-.8782 1.7125-1.14162.6587-.26344 1.3759-.39516 2.1517-.39516.7757 0 1.493.13172 2.1516.39516.6587.26342 1.2296.64392 1.7126 1.14162.483.4829.8563 1.0537 1.1197 1.7123.2781.644.4172 1.3611.4172 2.1514 0 .7904-.1391 1.5148-.4172 2.1734-.2634.644-.6367 1.2148-1.1197 1.7124-.483.483-1.0539.8562-1.7126 1.1196z" fill-rule="evenodd"></path></g><g clip-path="url(#d)"><path d="m5.32339 14.5586c0-.1649 0-.3712 0-.5361 0-5.52653 3.87906-10.22818 8.41841-10.22818 4.5393 0 8.4184 4.70165 8.4184 10.22818 0 3.7943-1.857 7.2174-4.4568 8.9496.8253.5362 1.6919.9486 2.641 1.1136 3.7966-.7836 6.8503-4.7842 7.0979-9.5271 0-.1649 0-.3712 0-.5361 0-7.87736-6.0249-14.0225-13.7005-14.0225-7.71688 0-13.7418 6.14514-13.7418 14.0225 0 7.8773 6.02492 14.0224 13.7005 14.0224.9079 0 1.7745-.0824 2.6411-.2474-6.19-1.196-10.81188-6.5576-11.01821-13.2389z" fill="url(#b)"></path><path clip-rule="evenodd" d="m17.7036 22.972c-.0001 0-.0001.0001-.0002.0001.0043.0028.0086.0056.0129.0084 1.2009.8068 2.5649 1.2701 3.9899 1.2701 4.5394 0 8.4184-4.7016 8.4184-10.2281v-.5362c-.2476-6.68128-4.8694-12.04281-11.0594-13.238845.8666-.1649699 1.7332-.247455 2.641-.247455 7.6756 0 13.7006 6.14514 13.7006 14.0225 0 7.8773-6.025 14.0224-13.7006 14.0224-7.6755 0-13.70046-6.1451-13.70046-14.0224v-.5362c.18532-4.77841 3.23346-8.79164 7.05156-9.55956.937.18967 1.8293.5772 2.6453 1.12461-2.6191 1.76681-4.456 5.17005-4.456 8.97115 0 3.7854 1.8393 7.1839 4.457 8.9495zm16.4652-8.9495c0-5.81523-3.5902-10.64061-8.7073-12.20783 3.4664 2.68077 5.6948 6.88751 5.9011 11.63043v.5361.0413c0 6.2276-4.4568 11.4654-9.6976 11.4654-5.2409 0-9.6564-5.2378-9.6564-11.4654 0-3.4644 1.4443-6.80505 3.714-8.94966-3.4664.41242-6.3138 4.04177-6.52013 8.45476v.4949c0 7.1762 5.52973 12.7852 12.50373 12.7852 6.9741 0 12.4626-5.609 12.4626-12.7852z" fill="url(#c)" fill-rule="evenodd"></path></g></svg>
